<svg width="283" height="396" viewBox="0 0 283 396" fill="none" xmlns="http://www.w3.org/2000/svg">
<g clip-path="url(#clip0_3411_24138)">
<g clip-path="url(#clip1_3411_24138)">
<path d="M104.788 288.158H174.043V320.111H186.266V288.158H244.01C222.655 278.31 207.836 256.7 207.836 231.631H223.389L221.124 227.703H240.192L222.123 196.39L198.87 156.099H220.994L176.164 78.4092L131.326 156.099H153.688L112.366 227.703H139.674L104.788 288.158V288.158Z" fill="#D2D9DD"/>
<path d="M210.352 231.631C210.352 258.614 228.572 281.345 253.378 288.158C256.326 288.97 259.367 289.553 262.48 289.898V315.795L273.265 308.242V290.1C303.615 287.891 327.551 262.556 327.551 231.631C327.551 227.034 327.019 222.56 326.019 218.265C323.294 206.583 317.082 196.246 308.54 188.405C306.872 182.478 305.98 176.227 305.98 169.767C305.98 168.637 306.009 167.508 306.06 166.393C314.069 157.329 318.923 145.41 318.923 132.361C318.923 131.476 318.901 130.591 318.858 129.713C318.462 121.988 316.37 114.715 312.933 108.255C309.712 102.184 305.312 96.839 300.034 92.5301C297.848 87.6745 296.633 82.2866 296.633 76.6109C296.633 73.5824 296.978 70.6331 297.633 67.806C302.292 62.8281 305.707 56.6561 307.361 49.8079C308.102 46.7506 308.497 43.5639 308.497 40.2837C308.497 18.0341 290.471 0 268.232 0C245.993 0 227.968 18.0341 227.968 40.2837C227.968 43.5639 228.363 46.7506 229.104 49.8079C230.757 56.6561 234.173 62.8281 238.832 67.806C239.486 70.6331 239.831 73.5824 239.831 76.6109C239.831 81.6391 238.875 86.4444 237.142 90.854C230.477 95.7528 225.034 102.205 221.353 109.694C218.355 115.787 216.535 122.556 216.169 129.713C216.126 130.591 216.104 131.476 216.104 132.361C216.104 145.41 220.957 157.329 228.967 166.393C229.018 167.508 229.046 168.637 229.046 169.767C229.046 177.824 227.659 185.557 225.106 192.736C224.064 193.915 223.064 195.131 222.122 196.39C218.218 201.569 215.155 207.418 213.135 213.741C211.33 219.38 210.352 225.394 210.352 231.631Z" fill="#D2D9DD"/>
<path d="M267.873 290.978V20.502" stroke="white" stroke-width="3" stroke-miterlimit="10"/>
<path d="M290.881 47.8373L267.873 20.502" stroke="white" stroke-width="3" stroke-miterlimit="10" stroke-linecap="round"/>
<path d="M244.865 47.1179L267.873 20.502" stroke="white" stroke-width="3" stroke-miterlimit="10" stroke-linecap="round"/>
<path d="M291.162 105.96L268.154 78.625" stroke="white" stroke-width="3" stroke-miterlimit="10" stroke-linecap="round"/>
<path d="M245.146 105.241L268.154 78.625" stroke="white" stroke-width="3" stroke-miterlimit="10" stroke-linecap="round"/>
<path d="M291.025 163.94L268.017 136.604" stroke="white" stroke-width="3" stroke-miterlimit="10" stroke-linecap="round"/>
<path d="M245.009 163.22L268.018 136.604" stroke="white" stroke-width="3" stroke-miterlimit="10" stroke-linecap="round"/>
<path d="M291.307 222.064L268.298 194.729" stroke="white" stroke-width="3" stroke-miterlimit="10" stroke-linecap="round"/>
<path d="M245.289 221.344L268.297 194.729" stroke="white" stroke-width="3" stroke-miterlimit="10" stroke-linecap="round"/>
<path d="M335.662 374.063H135.216C135.216 374.063 140.249 356.079 155.349 355.36H166.781C166.781 355.36 197.051 326.586 225.812 325.866C254.572 325.147 257.484 325.866 257.484 325.866C259.425 323.356 262.402 319.997 266.63 316.788C271.282 313.256 280.55 306.214 291.953 307.163C305.967 308.336 316.982 321.047 319.995 332.341C322.188 340.548 320.843 350.317 320.714 350.324H321.433C321.433 350.324 332.937 351.044 334.375 359.676C335.813 368.308 335.655 374.063 335.655 374.063H335.662Z" fill="#D2D9DD"/>
<path d="M30.24 373.962C56.4767 373.962 99.1429 373.767 133.087 373.962C133.483 372.429 138.581 353.928 153.191 353.201H165.414C165.414 353.201 189.3 330.081 215.055 324.528C215.04 324.492 215.033 324.463 215.026 324.427C208.555 314.356 196.936 305.371 184.827 305.724C172.252 306.091 170.26 309.198 158.224 319.392C148.877 327.304 147.439 324.427 139.53 324.427C131.621 324.427 112.524 324.664 102.141 328.743C82.0089 336.656 76.2568 343.13 65.4716 351.762C59.3672 356.647 48.2153 351.762 43.1822 355.359C36.6608 360.021 32.0519 368.027 30.24 373.962Z" fill="#D2D9DD"/>
</g>
<path d="M51.6429 137.812H144.148C159.694 137.812 172.297 150.423 172.297 165.978V216.834C172.297 232.39 159.694 245 144.148 245H51.6429C36.097 245 23.4945 232.39 23.4945 216.834V165.978C23.4945 150.423 36.097 137.812 51.6429 137.812Z" fill="#ED4545"/>
<path d="M33.4878 162.282V211.772C33.4878 219.704 39.9597 226.192 47.8719 226.192H147.124C155.045 226.192 161.521 219.704 161.521 211.772V162.282C161.521 154.341 155.05 147.849 147.124 147.849H47.8719C39.9597 147.849 33.4878 154.337 33.4878 162.282Z" fill="black"/>
<path fill-rule="evenodd" clip-rule="evenodd" d="M146.991 148.528C154.609 148.528 160.835 154.754 160.835 162.37V211.705C160.835 219.312 154.605 225.535 146.991 225.535H47.7886C40.1837 225.535 33.9584 219.312 33.9584 211.705V162.37C33.9584 154.75 40.184 148.528 47.7886 148.528H146.991ZM161.928 162.37C161.928 154.155 155.216 147.438 146.991 147.438H47.7886C39.577 147.438 32.8652 154.151 32.8652 162.37V211.705C32.8652 219.912 39.5774 226.625 47.7886 226.625H146.991C155.211 226.625 161.928 219.912 161.928 211.705V162.37Z" fill="black"/>
<path d="M33.4878 211.768V218.623C33.4878 227.557 40.7715 234.859 49.6742 234.859H145.326C154.238 234.859 161.521 227.557 161.521 218.623V211.768C161.521 219.699 155.05 226.188 147.124 226.188H47.8719C39.9597 226.188 33.4878 219.699 33.4878 211.768Z" fill="#ED4545"/>
<path fill-rule="evenodd" clip-rule="evenodd" d="M160.835 217.356V218.602C160.835 227.23 153.798 234.282 145.194 234.282H49.5901C40.9952 234.282 33.9584 227.23 33.9584 218.602V217.356C36.1821 222.827 41.5531 226.709 47.7886 226.709H146.991C153.237 226.709 158.61 222.827 160.835 217.356ZM161.928 211.75V218.602C161.928 227.831 154.404 235.375 145.194 235.375H49.5901C40.3885 235.375 32.8652 227.831 32.8652 218.602V211.75H33.9584C33.9584 219.377 40.1837 225.615 47.7886 225.615H146.991C154.61 225.615 160.835 219.377 160.835 211.75H161.928Z" fill="black"/>
<path d="M172.297 171.438C168.893 171.438 165.925 174.23 165.925 177.642V206.456C165.925 209.868 168.893 212.66 172.297 212.66" fill="#ED4545"/>
<path fill-rule="evenodd" clip-rule="evenodd" d="M166.534 177.763C166.534 174.695 169.269 172.148 172.428 172.148V171.062C168.698 171.062 165.428 174.057 165.428 177.763V206.362C165.428 210.068 168.698 213.063 172.428 213.063V211.977C169.269 211.977 166.534 209.43 166.534 206.362V177.763Z" fill="black"/>
<path d="M172.918 171.526H173.282C176.676 171.526 179.428 174.304 179.428 177.73V206.544C179.428 209.97 176.676 212.748 173.282 212.748H172.918C169.523 212.748 166.772 209.97 166.772 206.544V177.73C166.772 174.304 169.523 171.526 172.918 171.526Z" fill="#ED4545"/>
<path fill-rule="evenodd" clip-rule="evenodd" d="M23.6777 172.148C26.836 172.148 29.5711 174.695 29.5711 177.763V206.362C29.5711 209.43 26.836 211.977 23.6777 211.977V213.063C27.4077 213.063 30.6777 210.068 30.6777 206.362V177.763C30.6777 174.057 27.4077 171.062 23.6777 171.062V172.148Z" fill="black"/>
<path d="M22.824 171.438H23.1881C26.5824 171.438 29.334 174.216 29.334 177.642V206.456C29.334 209.882 26.5824 212.66 23.1881 212.66H22.824C19.4297 212.66 16.6781 209.882 16.6781 206.456V177.642C16.6781 174.216 19.4297 171.438 22.824 171.438Z" fill="#ED4545"/>
<path d="M133.508 200.647C132.551 200.647 131.775 199.871 131.775 198.914C131.775 197.957 132.551 197.182 133.508 197.182C134.465 197.182 135.24 197.957 135.24 198.914C135.24 199.871 134.465 200.647 133.508 200.647Z" fill="#06D2FD"/>
<path d="M129.172 200.647C128.215 200.647 127.439 199.871 127.439 198.914C127.439 197.957 128.215 197.182 129.172 197.182C130.129 197.182 130.904 197.957 130.904 198.914C130.904 199.871 130.129 200.647 129.172 200.647Z" fill="#06D2FD"/>
<path d="M124.814 200.647C123.858 200.647 123.082 199.871 123.082 198.914C123.082 197.957 123.858 197.182 124.814 197.182C125.771 197.182 126.547 197.957 126.547 198.914C126.547 199.871 125.771 200.647 124.814 200.647Z" fill="#06D2FD"/>
<path d="M120.478 200.647C119.522 200.647 118.746 199.871 118.746 198.914C118.746 197.957 119.522 197.182 120.478 197.182C121.435 197.182 122.211 197.957 122.211 198.914C122.211 199.871 121.435 200.647 120.478 200.647Z" fill="#06D2FD"/>
<path d="M116.449 200.647C115.492 200.647 114.717 199.871 114.717 198.914C114.717 197.957 115.492 197.182 116.449 197.182C117.406 197.182 118.182 197.957 118.182 198.914C118.182 199.871 117.406 200.647 116.449 200.647Z" fill="#06D2FD"/>
<path d="M112.113 200.647C111.156 200.647 110.381 199.871 110.381 198.914C110.381 197.957 111.156 197.182 112.113 197.182C113.07 197.182 113.846 197.957 113.846 198.914C113.846 199.871 113.07 200.647 112.113 200.647Z" fill="#06D2FD"/>
<path d="M133.508 204.955C132.551 204.955 131.775 204.18 131.775 203.223C131.775 202.266 132.551 201.49 133.508 201.49C134.465 201.49 135.24 202.266 135.24 203.223C135.24 204.18 134.465 204.955 133.508 204.955Z" fill="#06D2FD"/>
<path d="M129.172 204.955C128.215 204.955 127.439 204.18 127.439 203.223C127.439 202.266 128.215 201.49 129.172 201.49C130.129 201.49 130.904 202.266 130.904 203.223C130.904 204.18 130.129 204.955 129.172 204.955Z" fill="#06D2FD"/>
<path d="M124.814 204.955C123.858 204.955 123.082 204.18 123.082 203.223C123.082 202.266 123.858 201.49 124.814 201.49C125.771 201.49 126.547 202.266 126.547 203.223C126.547 204.18 125.771 204.955 124.814 204.955Z" fill="#06D2FD"/>
<path d="M120.478 204.955C119.522 204.955 118.746 204.18 118.746 203.223C118.746 202.266 119.522 201.49 120.478 201.49C121.435 201.49 122.211 202.266 122.211 203.223C122.211 204.18 121.435 204.955 120.478 204.955Z" fill="#06D2FD"/>
<path d="M116.449 204.955C115.492 204.955 114.717 204.18 114.717 203.223C114.717 202.266 115.492 201.49 116.449 201.49C117.406 201.49 118.182 202.266 118.182 203.223C118.182 204.18 117.406 204.955 116.449 204.955Z" fill="#06D2FD"/>
<path d="M112.113 204.955C111.156 204.955 110.381 204.18 110.381 203.223C110.381 202.266 111.156 201.49 112.113 201.49C113.07 201.49 113.846 202.266 113.846 203.223C113.846 204.18 113.07 204.955 112.113 204.955Z" fill="#06D2FD"/>
<path d="M131.771 207.528C131.771 206.57 132.545 205.796 133.503 205.796C133.849 205.796 134.168 205.901 134.439 206.076C133.98 207.148 133.372 208.141 132.65 209.033C132.125 208.736 131.771 208.18 131.771 207.533V207.528Z" fill="#06D2FD"/>
<path d="M129.172 209.265C128.214 209.265 127.439 208.49 127.439 207.532C127.439 206.574 128.214 205.8 129.172 205.8C130.13 205.8 130.904 206.574 130.904 207.532C130.904 208.49 130.13 209.265 129.172 209.265Z" fill="#06D2FD"/>
<path d="M124.814 205.796C125.773 205.796 126.547 206.57 126.547 207.528C126.547 208.487 125.773 209.261 124.814 209.261C123.856 209.261 123.082 208.487 123.082 207.528C123.082 206.57 123.856 205.796 124.814 205.796Z" fill="#06D2FD"/>
<path d="M120.478 205.796C121.437 205.796 122.211 206.57 122.211 207.528C122.211 208.487 121.437 209.261 120.478 209.261C119.52 209.261 118.746 208.487 118.746 207.528C118.746 206.57 119.52 205.796 120.478 205.796Z" fill="#06D2FD"/>
<path d="M116.449 205.796C117.407 205.796 118.182 206.57 118.182 207.528C118.182 208.487 117.407 209.261 116.449 209.261C115.491 209.261 114.717 208.487 114.717 207.528C114.717 206.57 115.491 205.796 116.449 205.796Z" fill="#06D2FD"/>
<path d="M113.852 207.528C113.852 208.175 113.493 208.731 112.972 209.029C112.25 208.136 111.642 207.143 111.183 206.071C111.454 205.896 111.773 205.791 112.119 205.791C113.077 205.791 113.852 206.565 113.852 207.524V207.528Z" fill="#06D2FD"/>
<path d="M127.439 211.838C127.439 210.88 128.213 210.105 129.171 210.105C129.819 210.105 130.374 210.464 130.672 210.989C129.771 211.702 128.773 212.302 127.701 212.752C127.535 212.485 127.439 212.179 127.439 211.842V211.838Z" fill="#06D2FD"/>
<path d="M123.078 211.838C123.078 210.88 123.852 210.105 124.81 210.105C125.769 210.105 126.543 210.88 126.543 211.838C126.543 212.586 126.07 213.216 125.41 213.461C125.209 213.505 125.003 213.54 124.797 213.575C123.844 213.57 123.074 212.796 123.074 211.842L123.078 211.838Z" fill="#06D2FD"/>
<path d="M118.746 211.838C118.746 210.88 119.52 210.105 120.478 210.105C121.437 210.105 122.211 210.88 122.211 211.838C122.211 212.722 121.55 213.439 120.697 213.549C120.312 213.483 119.936 213.404 119.564 213.304C119.074 212.997 118.742 212.455 118.742 211.834L118.746 211.838Z" fill="#06D2FD"/>
<path d="M116.449 210.105C117.407 210.105 118.182 210.879 118.182 211.837C118.182 212.174 118.081 212.481 117.919 212.747C116.843 212.297 115.845 211.702 114.949 210.984C115.246 210.459 115.806 210.101 116.449 210.101V210.105Z" fill="#06D2FD"/>
<path d="M129.171 192.032C128.213 192.032 127.439 191.258 127.439 190.3C127.439 189.963 127.539 189.657 127.701 189.39C128.777 189.84 129.775 190.435 130.672 191.153C130.374 191.678 129.814 192.037 129.171 192.037V192.032Z" fill="#06D2FD"/>
<path d="M126.547 190.295C126.547 191.253 125.773 192.028 124.814 192.028C123.856 192.028 123.082 191.253 123.082 190.295C123.082 189.337 123.847 188.567 124.801 188.562C125.007 188.593 125.208 188.633 125.414 188.676C126.074 188.921 126.547 189.551 126.547 190.299V190.295Z" fill="#06D2FD"/>
<path d="M122.212 190.295C122.212 191.253 121.438 192.028 120.48 192.028C119.522 192.028 118.747 191.253 118.747 190.295C118.747 189.674 119.076 189.131 119.57 188.825C119.942 188.729 120.322 188.646 120.703 188.58C121.556 188.689 122.217 189.411 122.217 190.291L122.212 190.295Z" fill="#06D2FD"/>
<path d="M118.182 190.295C118.182 191.253 117.407 192.028 116.449 192.028C115.802 192.028 115.246 191.669 114.949 191.144C115.85 190.431 116.847 189.831 117.919 189.381C118.085 189.648 118.182 189.954 118.182 190.291V190.295Z" fill="#06D2FD"/>
<path d="M133.507 196.337C132.549 196.337 131.775 195.562 131.775 194.604C131.775 193.957 132.133 193.401 132.654 193.104C133.376 193.996 133.984 194.989 134.443 196.061C134.172 196.236 133.853 196.341 133.507 196.341V196.337Z" fill="#06D2FD"/>
<path d="M129.172 196.337C128.215 196.337 127.439 195.561 127.439 194.605C127.439 193.648 128.215 192.872 129.172 192.872C130.129 192.872 130.904 193.648 130.904 194.605C130.904 195.561 130.129 196.337 129.172 196.337Z" fill="#06D2FD"/>
<path d="M124.814 196.337C123.858 196.337 123.082 195.561 123.082 194.605C123.082 193.648 123.858 192.872 124.814 192.872C125.771 192.872 126.547 193.648 126.547 194.605C126.547 195.561 125.771 196.337 124.814 196.337Z" fill="#06D2FD"/>
<path d="M120.478 196.337C119.522 196.337 118.746 195.561 118.746 194.605C118.746 193.648 119.522 192.872 120.478 192.872C121.435 192.872 122.211 193.648 122.211 194.605C122.211 195.561 121.435 196.337 120.478 196.337Z" fill="#06D2FD"/>
<path d="M116.449 196.337C115.492 196.337 114.717 195.561 114.717 194.605C114.717 193.648 115.492 192.872 116.449 192.872C117.406 192.872 118.182 193.648 118.182 194.605C118.182 195.561 117.406 196.337 116.449 196.337Z" fill="#06D2FD"/>
<path d="M113.852 194.605C113.852 195.563 113.077 196.337 112.119 196.337C111.773 196.337 111.454 196.232 111.183 196.057C111.642 194.985 112.25 193.992 112.972 193.1C113.497 193.397 113.852 193.953 113.852 194.6V194.605Z" fill="#06D2FD"/>
<path d="M82.3984 200.647C81.4415 200.647 80.6659 199.871 80.6659 198.914C80.6659 197.957 81.4415 197.182 82.3984 197.182C83.3552 197.182 84.1309 197.957 84.1309 198.914C84.1309 199.871 83.3552 200.647 82.3984 200.647Z" fill="#06D2FD"/>
<path d="M78.0663 200.647C77.1095 200.647 76.3338 199.871 76.3338 198.914C76.3338 197.957 77.1095 197.182 78.0663 197.182C79.0232 197.182 79.7988 197.957 79.7988 198.914C79.7988 199.871 79.0232 200.647 78.0663 200.647Z" fill="#06D2FD"/>
<path d="M73.705 200.647C72.7482 200.647 71.9725 199.871 71.9725 198.914C71.9725 197.957 72.7482 197.182 73.705 197.182C74.6618 197.182 75.4375 197.957 75.4375 198.914C75.4375 199.871 74.6618 200.647 73.705 200.647Z" fill="#06D2FD"/>
<path d="M69.3749 200.647C68.4181 200.647 67.6424 199.871 67.6424 198.914C67.6424 197.957 68.4181 197.182 69.3749 197.182C70.3318 197.182 71.1074 197.957 71.1074 198.914C71.1074 199.871 70.3318 200.647 69.3749 200.647Z" fill="#06D2FD"/>
<path d="M65.3437 200.647C64.3868 200.647 63.6112 199.871 63.6112 198.914C63.6112 197.957 64.3868 197.182 65.3437 197.182C66.3005 197.182 67.0762 197.957 67.0762 198.914C67.0762 199.871 66.3005 200.647 65.3437 200.647Z" fill="#06D2FD"/>
<path d="M61.0097 200.647C60.0529 200.647 59.2772 199.871 59.2772 198.914C59.2772 197.957 60.0529 197.182 61.0097 197.182C61.9665 197.182 62.7422 197.957 62.7422 198.914C62.7422 199.871 61.9665 200.647 61.0097 200.647Z" fill="#06D2FD"/>
<path d="M82.3984 204.955C81.4415 204.955 80.6659 204.18 80.6659 203.223C80.6659 202.266 81.4415 201.49 82.3984 201.49C83.3552 201.49 84.1309 202.266 84.1309 203.223C84.1309 204.18 83.3552 204.955 82.3984 204.955Z" fill="#06D2FD"/>
<path d="M78.0663 204.955C77.1095 204.955 76.3338 204.18 76.3338 203.223C76.3338 202.266 77.1095 201.49 78.0663 201.49C79.0232 201.49 79.7988 202.266 79.7988 203.223C79.7988 204.18 79.0232 204.955 78.0663 204.955Z" fill="#06D2FD"/>
<path d="M73.705 204.955C72.7482 204.955 71.9725 204.18 71.9725 203.223C71.9725 202.266 72.7482 201.49 73.705 201.49C74.6618 201.49 75.4375 202.266 75.4375 203.223C75.4375 204.18 74.6618 204.955 73.705 204.955Z" fill="#06D2FD"/>
<path d="M69.3749 204.955C68.4181 204.955 67.6424 204.18 67.6424 203.223C67.6424 202.266 68.4181 201.49 69.3749 201.49C70.3318 201.49 71.1074 202.266 71.1074 203.223C71.1074 204.18 70.3318 204.955 69.3749 204.955Z" fill="#06D2FD"/>
<path d="M65.3437 204.955C64.3868 204.955 63.6112 204.18 63.6112 203.223C63.6112 202.266 64.3868 201.49 65.3437 201.49C66.3005 201.49 67.0762 202.266 67.0762 203.223C67.0762 204.18 66.3005 204.955 65.3437 204.955Z" fill="#06D2FD"/>
<path d="M61.0097 204.955C60.0529 204.955 59.2772 204.18 59.2772 203.223C59.2772 202.266 60.0529 201.49 61.0097 201.49C61.9665 201.49 62.7422 202.266 62.7422 203.223C62.7422 204.18 61.9665 204.955 61.0097 204.955Z" fill="#06D2FD"/>
<path d="M80.6652 207.528C80.6652 206.57 81.4396 205.796 82.3977 205.796C82.7434 205.796 83.0627 205.901 83.334 206.076C82.8746 207.148 82.2665 208.141 81.5446 209.033C81.0196 208.736 80.6652 208.18 80.6652 207.533V207.528Z" fill="#06D2FD"/>
<path d="M78.0663 209.265C77.1082 209.265 76.3338 208.49 76.3338 207.532C76.3338 206.574 77.1082 205.8 78.0663 205.8C79.0244 205.8 79.7988 206.574 79.7988 207.532C79.7988 208.49 79.0244 209.265 78.0663 209.265Z" fill="#06D2FD"/>
<path d="M73.705 205.796C74.6631 205.796 75.4375 206.57 75.4375 207.528C75.4375 208.487 74.6631 209.261 73.705 209.261C72.7469 209.261 71.9725 208.487 71.9725 207.528C71.9725 206.57 72.7469 205.796 73.705 205.796Z" fill="#06D2FD"/>
<path d="M69.3749 205.796C70.333 205.796 71.1074 206.57 71.1074 207.528C71.1074 208.487 70.333 209.261 69.3749 209.261C68.4168 209.261 67.6424 208.487 67.6424 207.528C67.6424 206.57 68.4168 205.796 69.3749 205.796Z" fill="#06D2FD"/>
<path d="M65.3437 205.796C66.3018 205.796 67.0762 206.57 67.0762 207.528C67.0762 208.487 66.3018 209.261 65.3437 209.261C64.3856 209.261 63.6112 208.487 63.6112 207.528C63.6112 206.57 64.3856 205.796 65.3437 205.796Z" fill="#06D2FD"/>
<path d="M62.7422 207.528C62.7422 208.175 62.3834 208.731 61.8628 209.029C61.1409 208.136 60.5328 207.143 60.0734 206.071C60.3447 205.896 60.6641 205.791 61.0097 205.791C61.9678 205.791 62.7422 206.565 62.7422 207.524V207.528Z" fill="#06D2FD"/>
<path d="M76.3294 211.838C76.3294 210.88 77.1037 210.105 78.0619 210.105C78.7094 210.105 79.265 210.464 79.5625 210.989C78.6613 211.702 77.6637 212.302 76.5919 212.752C76.4256 212.485 76.3294 212.179 76.3294 211.842V211.838Z" fill="#06D2FD"/>
<path d="M71.9725 211.838C71.9725 210.88 72.7469 210.105 73.705 210.105C74.6631 210.105 75.4375 210.88 75.4375 211.838C75.4375 212.586 74.965 213.216 74.3044 213.461C74.1031 213.505 73.8975 213.54 73.6919 213.575C72.7381 213.57 71.9681 212.796 71.9681 211.842L71.9725 211.838Z" fill="#06D2FD"/>
<path d="M67.6366 211.838C67.6366 210.88 68.4109 210.105 69.3691 210.105C70.3272 210.105 71.1016 210.88 71.1016 211.838C71.1016 212.722 70.4409 213.439 69.5878 213.549C69.2028 213.483 68.8266 213.404 68.4547 213.304C67.9647 212.997 67.6322 212.455 67.6322 211.834L67.6366 211.838Z" fill="#06D2FD"/>
<path d="M65.3437 210.105C66.3018 210.105 67.0762 210.879 67.0762 211.837C67.0762 212.174 66.9756 212.481 66.8137 212.747C65.7374 212.297 64.7399 211.702 63.843 210.984C64.1405 210.459 64.7006 210.101 65.3437 210.101V210.105Z" fill="#06D2FD"/>
<path d="M78.0677 192.032C77.1096 192.032 76.3352 191.258 76.3352 190.3C76.3352 189.963 76.4359 189.657 76.5977 189.39C77.674 189.84 78.6715 190.435 79.5684 191.153C79.2709 191.678 78.7109 192.037 78.0677 192.037V192.032Z" fill="#06D2FD"/>
<path d="M75.4429 190.295C75.4429 191.253 74.6685 192.028 73.7104 192.028C72.7523 192.028 71.9779 191.253 71.9779 190.295C71.9779 189.337 72.7479 188.567 73.7016 188.562C73.9073 188.593 74.1085 188.633 74.3141 188.676C74.9748 188.921 75.4473 189.551 75.4473 190.299L75.4429 190.295Z" fill="#06D2FD"/>
<path d="M71.107 190.295C71.107 191.253 70.3326 192.028 69.3745 192.028C68.4163 192.028 67.642 191.253 67.642 190.295C67.642 189.674 67.9701 189.131 68.4644 188.825C68.8363 188.729 69.217 188.646 69.5976 188.58C70.4507 188.689 71.1113 189.411 71.1113 190.291L71.107 190.295Z" fill="#06D2FD"/>
<path d="M67.0762 190.295C67.0762 191.253 66.3018 192.028 65.3437 192.028C64.6962 192.028 64.1405 191.669 63.843 191.144C64.7443 190.431 65.7418 189.831 66.8137 189.381C66.9799 189.648 67.0762 189.954 67.0762 190.291V190.295Z" fill="#06D2FD"/>
<path d="M82.3977 196.337C81.4396 196.337 80.6652 195.562 80.6652 194.604C80.6652 193.957 81.024 193.401 81.5446 193.104C82.2665 193.996 82.8746 194.989 83.334 196.061C83.0627 196.236 82.7434 196.341 82.3977 196.341V196.337Z" fill="#06D2FD"/>
<path d="M78.0663 196.337C77.1095 196.337 76.3338 195.561 76.3338 194.605C76.3338 193.648 77.1095 192.872 78.0663 192.872C79.0232 192.872 79.7988 193.648 79.7988 194.605C79.7988 195.561 79.0232 196.337 78.0663 196.337Z" fill="#06D2FD"/>
<path d="M73.705 196.337C72.7482 196.337 71.9725 195.561 71.9725 194.605C71.9725 193.648 72.7482 192.872 73.705 192.872C74.6618 192.872 75.4375 193.648 75.4375 194.605C75.4375 195.561 74.6618 196.337 73.705 196.337Z" fill="#06D2FD"/>
<path d="M69.3749 196.337C68.4181 196.337 67.6424 195.561 67.6424 194.605C67.6424 193.648 68.4181 192.872 69.3749 192.872C70.3318 192.872 71.1074 193.648 71.1074 194.605C71.1074 195.561 70.3318 196.337 69.3749 196.337Z" fill="#06D2FD"/>
<path d="M65.3437 196.337C64.3868 196.337 63.6112 195.561 63.6112 194.605C63.6112 193.648 64.3868 192.872 65.3437 192.872C66.3005 192.872 67.0762 193.648 67.0762 194.605C67.0762 195.561 66.3005 196.337 65.3437 196.337Z" fill="#06D2FD"/>
<path d="M62.7422 194.605C62.7422 195.563 61.9678 196.337 61.0097 196.337C60.6641 196.337 60.3447 196.232 60.0734 196.057C60.5328 194.985 61.1409 193.992 61.8628 193.1C62.3878 193.397 62.7422 193.953 62.7422 194.6V194.605Z" fill="#06D2FD"/>
<path d="M138.031 252H57.6322C53.6231 252 50.3652 255.263 50.3652 259.282V307.187C50.3652 332.266 70.6943 352.625 95.7356 352.625H99.9368C124.974 352.625 145.303 332.261 145.303 307.187V259.282C145.303 255.263 142.045 252 138.031 252Z" fill="#ED4545"/>
<path fill-rule="evenodd" clip-rule="evenodd" d="M134.982 252V306.378C134.982 326.511 118.531 342.985 98.4296 342.985H97.4514C77.3498 342.985 60.8993 326.511 60.8993 306.378V252H59.7618V306.378C59.7618 327.138 76.72 344.123 97.4514 344.123H98.4296C119.161 344.123 136.119 327.138 136.119 306.378V252H134.982Z" fill="black"/>
<path d="M78.5623 298.843C78.5623 302.613 79.6803 306.3 81.7722 309.436C83.864 312.572 86.8381 315.016 90.3187 316.46C93.7993 317.903 97.6249 318.279 101.32 317.544C105.014 316.81 108.407 314.995 111.067 312.327C113.731 309.659 115.543 306.26 116.277 302.565C117.011 298.864 116.635 295.033 115.194 291.547C113.753 288.062 111.312 285.083 108.18 282.988C105.049 280.893 101.368 279.773 97.6031 279.773C95.1007 279.773 92.6245 280.268 90.3143 281.225C88.0041 282.183 85.9035 283.587 84.1348 285.359C82.3661 287.13 80.9642 289.234 80.0078 291.547C79.0514 293.861 78.5579 296.341 78.5579 298.847" fill="white"/>
<path fill-rule="evenodd" clip-rule="evenodd" d="M83.5505 298.488C83.0046 297.67 82.712 296.708 82.712 295.724C82.712 295.072 82.8387 294.425 83.092 293.821C83.3409 293.218 83.7077 292.671 84.1663 292.207C84.6292 291.744 85.1751 291.381 85.7778 291.131C86.3804 290.882 87.0268 290.751 87.6775 290.751C88.6601 290.751 89.6209 291.044 90.4375 291.591C91.2542 292.137 91.8918 292.912 92.2673 293.821C92.6429 294.731 92.7434 295.728 92.5512 296.695C92.3591 297.661 91.8874 298.545 91.193 299.24C90.4987 299.936 89.6121 300.408 88.6513 300.6C87.6862 300.793 86.6905 300.692 85.7821 300.316C84.8738 299.94 84.1008 299.301 83.5549 298.484L83.5505 298.488ZM82.712 306.466V311.771C85.3017 314.863 88.7605 317.102 92.6386 318.2V306.461C92.6255 305.153 92.0927 303.903 91.1668 302.98C90.2366 302.061 88.9833 301.545 87.6775 301.545C86.3717 301.545 85.1183 302.061 84.1881 302.98C83.2579 303.898 82.7295 305.149 82.7164 306.461L82.712 306.466Z" fill="#EDC238"/>
<path fill-rule="evenodd" clip-rule="evenodd" d="M103.404 300.635C102.858 299.818 102.566 298.855 102.566 297.871C102.566 297.22 102.692 296.572 102.945 295.969C103.199 295.365 103.561 294.818 104.02 294.355C104.483 293.891 105.029 293.528 105.631 293.279C106.234 293.03 106.88 292.898 107.531 292.898C108.514 292.898 109.474 293.191 110.291 293.738C111.108 294.285 111.745 295.059 112.121 295.969C112.496 296.878 112.597 297.876 112.405 298.842C112.213 299.809 111.741 300.692 111.047 301.388C110.352 302.083 109.466 302.555 108.505 302.748C107.54 302.94 106.544 302.84 105.636 302.464C104.727 302.088 103.954 301.449 103.408 300.631L103.404 300.635ZM111.042 305.057C110.112 304.126 108.85 303.601 107.531 303.601C106.216 303.601 104.95 304.126 104.02 305.057C103.09 305.989 102.566 307.253 102.566 308.574V318.729C106.444 317.632 109.902 315.392 112.492 312.3V308.574C112.492 307.257 111.968 305.993 111.038 305.057H111.042Z" fill="#24618C"/>
<path d="M92.6383 292.383C92.6383 293.367 92.9309 294.329 93.4768 295.147C94.0227 295.965 94.7956 296.603 95.704 296.979C96.6124 297.355 97.6081 297.456 98.5732 297.264C99.5384 297.071 100.421 296.599 101.115 295.903C101.809 295.208 102.281 294.32 102.473 293.358C102.665 292.391 102.565 291.394 102.189 290.484C101.814 289.575 101.176 288.801 100.359 288.254C99.5427 287.707 98.582 287.414 97.5993 287.414C96.2848 287.414 95.0184 287.939 94.0882 288.87C93.158 289.802 92.6339 291.066 92.6339 292.387" fill="#ED4545"/>
<path d="M92.5688 316.954V302.822C92.56 302.166 92.6823 301.51 92.9312 300.902C93.1758 300.294 93.5426 299.739 94.0056 299.271C94.4685 298.803 95.0187 298.431 95.6214 298.178C96.2284 297.924 96.8791 297.793 97.5342 297.793C98.1893 297.793 98.84 297.924 99.447 298.178C100.054 298.431 100.604 298.803 101.063 299.271C101.526 299.739 101.888 300.294 102.137 300.902C102.382 301.51 102.508 302.166 102.5 302.822V316.954C106.959 315.747 110.823 312.965 113.383 309.116C115.942 305.267 117.016 300.622 116.409 296.039C115.802 291.455 113.553 287.248 110.081 284.204C106.609 281.155 102.15 279.476 97.5342 279.476C92.9181 279.476 88.4593 281.155 84.9874 284.204C81.5155 287.252 79.2664 291.455 78.6594 296.039C78.0523 300.622 79.1267 305.272 81.6858 309.116C84.245 312.965 88.1143 315.751 92.5688 316.954V316.954ZM97.5342 277.372C101.714 277.372 105.801 278.614 109.277 280.941C112.754 283.268 115.466 286.574 117.064 290.441C118.662 294.311 119.082 298.567 118.265 302.674C117.448 306.781 115.435 310.555 112.479 313.516C109.522 316.477 105.753 318.493 101.652 319.311C97.5517 320.129 93.3024 319.709 89.4375 318.108C85.5726 316.508 82.271 313.792 79.9477 310.31C77.6244 306.829 76.3841 302.735 76.3841 298.549C76.3885 292.938 78.6201 287.554 82.5811 283.587C86.5421 279.616 91.9181 277.385 97.5211 277.376" fill="#ED4545"/>
<path fill-rule="evenodd" clip-rule="evenodd" d="M83.1539 364.651C82.3874 364.186 82.3027 363.866 82.3027 363.781C82.3027 363.696 82.3874 363.377 83.1539 362.911C83.8682 362.478 84.9601 362.056 86.3865 361.69C89.2263 360.961 93.1966 360.5 97.6152 360.5C102.034 360.5 106.004 360.961 108.844 361.69C110.27 362.056 111.362 362.478 112.077 362.911C112.843 363.377 112.928 363.696 112.928 363.781C112.928 363.866 112.843 364.186 112.077 364.651C111.362 365.085 110.27 365.506 108.844 365.873C106.004 366.602 102.034 367.062 97.6152 367.062C93.1966 367.062 89.2263 366.602 86.3865 365.873C84.9601 365.506 83.8682 365.085 83.1539 364.651ZM97.6152 367.938C88.6751 367.938 81.4277 366.077 81.4277 363.781C81.4277 361.486 88.6751 359.625 97.6152 359.625C106.555 359.625 113.803 361.486 113.803 363.781C113.803 366.077 106.555 367.938 97.6152 367.938Z" fill="#D8DEE4"/>
<path fill-rule="evenodd" clip-rule="evenodd" d="M93.5824 370.283C93.5818 370.283 93.5852 370.287 93.5943 370.295C93.5875 370.287 93.583 370.283 93.5824 370.283ZM94.1641 370.563C94.2478 370.535 94.3406 370.506 94.4425 370.479C95.219 370.267 96.3411 370.125 97.6152 370.125C98.8894 370.125 100.011 370.267 100.788 370.479C100.89 370.506 100.983 370.535 101.066 370.563C100.983 370.59 100.89 370.619 100.788 370.646C100.011 370.858 98.8894 371 97.6152 371C96.3411 371 95.219 370.858 94.4425 370.646C94.3406 370.619 94.2478 370.59 94.1641 370.563ZM101.648 370.283C101.648 370.283 101.643 370.287 101.636 370.295C101.645 370.287 101.649 370.283 101.648 370.283ZM101.648 370.842C101.649 370.842 101.645 370.838 101.636 370.83C101.643 370.838 101.648 370.842 101.648 370.842ZM93.5943 370.83C93.5852 370.838 93.5818 370.842 93.5824 370.842C93.5829 370.842 93.5875 370.838 93.5943 370.83ZM97.6152 371.875C94.9574 371.875 92.8027 371.287 92.8027 370.562C92.8027 369.838 94.9574 369.25 97.6152 369.25C100.273 369.25 102.428 369.838 102.428 370.562C102.428 371.287 100.273 371.875 97.6152 371.875Z" fill="#D8E1E7"/>
<path d="M67.4277 390.906C67.4277 393.685 81.0411 395.938 97.834 395.938C114.627 395.938 128.24 393.685 128.24 390.906C128.24 388.128 114.627 385.875 97.834 385.875C81.0411 385.875 67.4277 388.128 67.4277 390.906Z" fill="#D3E1EA"/>
<path d="M50.3784 265.125V284.375C50.3784 284.375 16.6909 300.562 18.0034 314.562C19.3159 328.562 60.4409 326.812 63.5034 326.812C66.5659 326.812 77.0659 341.25 63.9409 344.312C50.8159 347.375 -2.12163 341.25 0.0658654 315C2.25337 288.75 30.6909 274.75 50.3784 265.125Z" fill="#323232"/>
<path fill-rule="evenodd" clip-rule="evenodd" d="M50.3784 278.189V265.125C47.3187 266.621 44.0477 268.222 40.6967 269.959L50.3784 278.189ZM50.3784 279.624V284.375C50.3784 284.375 46.3039 286.333 41.0441 289.476L27.0636 277.771C31.1938 275.098 35.4729 272.695 39.6499 270.505L50.3784 279.624ZM26.1071 278.397L40.0539 290.073C36.5376 292.215 32.594 294.84 29.0226 297.734L14.6114 287.358C18.1127 284.063 22.0268 281.095 26.1071 278.397ZM13.8077 288.127C9.42448 292.394 5.74376 297.198 3.277 302.654L19.8262 307.669C21.6633 304.49 24.6935 301.349 28.1497 298.453L13.8077 288.127ZM0.0658654 315C0.404385 310.938 1.37154 307.169 2.83763 303.664L19.2978 308.652C18.3139 310.632 17.8211 312.618 18.0034 314.562C18.0395 314.948 18.1058 315.321 18.2006 315.683L1.26402 323.059C0.265006 320.613 -0.178489 317.932 0.0658654 315ZM1.70911 324.058C3.88766 328.568 7.99474 332.239 13.1304 335.174L22.5221 320.952C20.6804 319.783 19.2962 318.386 18.5621 316.719L1.70911 324.058ZM26.1019 340.6C21.8305 339.295 17.7269 337.676 14.0891 335.707L23.4647 321.51C25.6944 322.74 28.4608 323.694 31.4917 324.431L26.1019 340.6ZM27.1505 340.913C30.6925 341.947 34.332 342.768 37.9021 343.397L42.3357 326.185C39.027 325.854 35.676 325.373 32.5616 324.68L27.1505 340.913ZM51.594 344.94C47.7436 344.761 43.4313 344.321 38.9839 343.582L43.4381 326.29C47.0818 326.62 50.6359 326.775 53.7233 326.841L51.594 344.94ZM52.69 344.984C57.4555 345.148 61.4279 344.899 63.9409 344.312C77.0659 341.25 66.5659 326.812 63.5034 326.812C63.3135 326.812 62.9774 326.819 62.5135 326.829H62.5134H62.5133C61.0399 326.858 58.2781 326.913 54.8222 326.861L52.69 344.984Z" fill="#8FB0C8"/>
<path d="M60.6514 337.745C58.5689 334.556 55.9833 330.693 56.5739 325.942C57.112 321.589 60.2708 319.419 61.5176 318.74C66.4439 316.045 72.8926 315.499 73.7545 315.665C75.5133 315.665 77.0008 316.763 77.3814 318.18C77.7926 319.729 76.3226 321.186 74.1133 322.621C72.5645 323.627 70.2064 325.417 66.5008 326.462C68.207 329.765 69.9133 333.073 71.6195 336.376C74.2883 335.195 76.9526 334.014 79.6214 332.832C79.932 332.692 83.6639 331.179 84.9326 332.43C86.477 333.948 83.4626 338.336 83.0951 338.949C82.662 339.684 78.8076 345.962 72.2758 345.874C66.6364 345.8 62.9089 341.197 60.6514 337.737V337.745Z" fill="#1D6295"/>
<path d="M145.364 265.125V284.375C145.364 284.375 179.051 300.562 177.739 314.562C176.426 328.562 135.301 326.812 132.239 326.812C129.176 326.812 118.676 341.25 131.801 344.312C144.926 347.375 197.864 341.25 195.676 315C193.489 288.75 165.051 274.75 145.364 265.125Z" fill="#323232"/>
<path fill-rule="evenodd" clip-rule="evenodd" d="M145.364 278.189V265.125C148.423 266.621 151.695 268.222 155.045 269.959L145.364 278.189ZM145.364 279.624V284.375C145.364 284.375 149.438 286.333 154.698 289.476L168.679 277.771C164.548 275.098 160.269 272.695 156.092 270.505L145.364 279.624ZM169.635 278.397L155.688 290.073C159.205 292.215 163.148 294.84 166.72 297.734L181.131 287.358C177.629 284.063 173.715 281.095 169.635 278.397ZM181.934 288.127C186.318 292.394 189.998 297.198 192.465 302.654L175.916 307.669C174.079 304.49 171.049 301.349 167.593 298.453L181.934 288.127ZM195.676 315C195.338 310.938 194.371 307.169 192.905 303.664L176.444 308.652C177.428 310.632 177.921 312.618 177.739 314.562C177.703 314.948 177.636 315.321 177.542 315.683L194.478 323.059C195.477 320.613 195.921 317.932 195.676 315ZM194.033 324.058C191.855 328.568 187.747 332.239 182.612 335.174L173.22 320.952C175.062 319.783 176.446 318.386 177.18 316.719L194.033 324.058ZM169.64 340.6C173.912 339.295 178.015 337.676 181.653 335.707L172.278 321.51C170.048 322.74 167.281 323.694 164.251 324.431L169.64 340.6ZM168.592 340.913C165.05 341.947 161.41 342.768 157.84 343.397L153.407 326.185C156.715 325.854 160.066 325.373 163.181 324.68L168.592 340.913ZM144.148 344.94C147.999 344.761 152.311 344.321 156.758 343.582L152.304 326.29C148.66 326.62 145.106 326.775 142.019 326.841L144.148 344.94ZM143.052 344.984C138.287 345.148 134.314 344.899 131.801 344.312C118.676 341.25 129.176 326.812 132.239 326.812C132.429 326.812 132.765 326.819 133.229 326.829H133.229H133.229C134.702 326.858 137.464 326.913 140.92 326.861L143.052 344.984Z" fill="#8FB0C8"/>
<path d="M135.091 337.745C137.173 334.556 139.759 330.693 139.168 325.942C138.63 321.589 135.471 319.419 134.225 318.74C129.298 316.045 122.85 315.499 121.988 315.665C120.229 315.665 118.741 316.763 118.361 318.18C117.95 319.729 119.42 321.186 121.629 322.621C123.178 323.627 125.536 325.417 129.241 326.462C127.535 329.765 125.829 333.073 124.123 336.376C121.454 335.195 118.79 334.014 116.121 332.832C115.81 332.692 112.078 331.179 110.81 332.43C109.265 333.948 112.28 338.336 112.647 338.949C113.08 339.684 116.935 345.962 123.466 345.874C129.106 345.8 132.833 341.197 135.091 337.737V337.745Z" fill="#1D6295"/>
<g clip-path="url(#clip2_3411_24138)">
<path d="M135.844 259.024V252.877C135.844 252.877 100.522 271.702 99.3705 280.922C99.3705 280.922 129.317 261.713 135.844 259.024Z" fill="white"/>
<path d="M141.602 257.487V264.472L101.761 283.228L99.3694 281.595C99.3694 281.595 108.2 271.702 141.602 257.487Z" fill="white"/>
<path d="M55.6018 260.98V254.287C55.6018 254.287 92.2747 273.658 99.1777 281.691L97.0661 283.228L55.6018 260.98Z" fill="white"/>
<path d="M62.3214 257.138L62.5134 250.576C62.5134 250.576 96.2991 272.087 98.2188 280.923C98.2188 280.923 70.5759 261.714 62.3214 257.134V257.138Z" fill="white"/>
<path d="M91.4992 279.963L52.3384 259.217L50.8027 320.686L89.9634 336.822C89.9634 336.822 96.1409 341.816 103.996 336.822L144.865 322.991V263.032L104.941 280.481C104.941 280.481 98.0259 285.722 91.4992 279.959V279.963Z" fill="#FF951B"/>
<path d="M103.517 336.821C96.7215 342.968 90.3483 336.821 90.3483 336.821L91.8686 280.554C99.3399 284.411 104.941 280.554 104.941 280.554" fill="#FFC337"/>
<path fill-rule="evenodd" clip-rule="evenodd" d="M91.5009 279.932L89.9595 336.98L90.0814 337.098L90.3478 336.821C90.0814 337.098 90.0816 337.098 90.0817 337.098L90.0822 337.098L90.0837 337.1L90.0883 337.104L90.1045 337.119C90.1184 337.132 90.1384 337.151 90.1643 337.174C90.2161 337.221 90.2916 337.287 90.3895 337.368C90.585 337.531 90.8703 337.755 91.2335 338.003C91.9587 338.498 93.0018 339.094 94.2687 339.493C96.8229 340.296 100.262 340.283 103.774 337.106L103.259 336.536C99.9759 339.506 96.8303 339.493 94.499 338.76C93.3232 338.39 92.3483 337.834 91.6661 337.368C91.3257 337.136 91.0599 336.927 90.8804 336.778C90.8236 336.73 90.7754 336.689 90.7364 336.655L92.2358 281.164C95.8343 282.869 98.9905 282.85 101.284 282.376C102.485 282.128 103.448 281.756 104.112 281.444C104.444 281.288 104.702 281.147 104.879 281.044C104.968 280.992 105.036 280.95 105.082 280.92C105.106 280.905 105.124 280.893 105.137 280.885L105.152 280.875L105.156 280.872L105.158 280.871L105.158 280.87C105.158 280.87 105.159 280.87 104.941 280.554C104.723 280.237 104.723 280.237 104.724 280.237L104.722 280.238L104.713 280.244C104.704 280.25 104.689 280.26 104.67 280.272C104.631 280.297 104.572 280.334 104.492 280.38C104.333 280.473 104.096 280.603 103.786 280.748C103.166 281.039 102.261 281.39 101.129 281.624C98.8682 282.091 95.6914 282.095 92.0442 280.212L91.5009 279.932Z" fill="black"/>
<path fill-rule="evenodd" clip-rule="evenodd" d="M141.552 256.388C121.598 265.603 110.768 270.63 98.7917 281.455L99.5638 282.31C111.391 271.621 122.061 266.659 142.035 257.434L141.552 256.388Z" fill="black"/>
<path fill-rule="evenodd" clip-rule="evenodd" d="M102.399 274.227C100.091 276.773 98.6019 279.359 98.6019 281.884H99.7537C99.7537 279.798 101 277.486 103.252 275.001C105.489 272.532 108.641 269.98 112.275 267.42C117.618 263.656 123.935 259.923 129.815 256.448C131.939 255.193 134.006 253.971 135.949 252.795L135.353 251.809C133.433 252.971 131.382 254.184 129.267 255.433C123.376 258.914 116.996 262.685 111.612 266.477C107.951 269.056 104.72 271.666 102.399 274.227Z" fill="black"/>
<path fill-rule="evenodd" clip-rule="evenodd" d="M64.9131 259.96C80.6499 269.341 91.0798 275.559 98.7982 282.317L99.5566 281.45C91.7525 274.616 81.2119 268.333 65.4828 258.957C62.5389 257.202 59.4133 255.339 56.0898 253.344L55.4972 254.332C58.8333 256.335 61.9662 258.203 64.9131 259.96Z" fill="black"/>
<path fill-rule="evenodd" clip-rule="evenodd" d="M97.5782 279.415C98.3147 280.54 98.7132 281.457 98.7938 282.143L99.9453 282.008C99.8329 281.051 99.3148 279.951 98.5482 278.78C97.7729 277.595 96.7054 276.282 95.4239 274.888C92.86 272.101 89.4003 268.954 85.602 265.828C78.0093 259.579 69.001 253.367 62.9705 250.249L62.4382 251.28C68.3709 254.347 77.3094 260.506 84.8655 266.724C88.6417 269.831 92.0569 272.941 94.5708 275.674C95.8283 277.041 96.8503 278.303 97.5782 279.415Z" fill="black"/>
</g>
<path d="M60.6514 337.745C58.5689 334.556 55.9833 330.693 56.5739 325.942C57.112 321.589 60.2708 319.419 61.5176 318.74C66.4439 316.045 72.8926 315.499 73.7545 315.665C75.5132 315.665 77.0008 316.763 77.3814 318.18C77.7926 319.729 76.3226 321.186 74.1133 322.621C72.5645 323.627 70.2064 325.417 66.5008 326.462C68.207 329.765 69.9133 333.073 71.6195 336.376C74.2883 335.195 76.9526 334.014 79.6214 332.832C79.932 332.692 81.472 334.311 82.7407 335.563C84.2851 337.081 83.4626 338.336 83.0951 338.949C82.662 339.684 78.8076 345.962 72.2758 345.874C66.6364 345.8 62.9089 341.197 60.6514 337.737V337.745Z" fill="#1D6295"/>
<path d="M135.015 337.545C137.097 334.356 139.683 330.493 139.092 325.741C138.554 321.388 135.395 319.218 134.148 318.54C129.222 315.845 122.773 315.298 121.912 315.465C120.153 315.465 118.665 316.563 118.285 317.98C117.873 319.529 119.343 320.986 121.553 322.421C123.102 323.427 125.46 325.216 129.165 326.262C127.459 329.565 125.753 332.873 124.047 336.176C121.378 334.995 119.315 335.431 116.646 334.25C116.336 334.11 119.553 337.497 118.285 338.748C116.74 340.267 112.203 338.136 112.571 338.748C113.004 339.483 116.858 345.761 123.39 345.674C129.03 345.6 132.757 340.997 135.015 337.536V337.545Z" fill="#1D6295"/>
</g>
<defs>
<clipPath id="clip0_3411_24138">
<rect width="283" height="395.94" fill="white"/>
</clipPath>
<clipPath id="clip1_3411_24138">
<rect width="387.188" height="374.062" fill="white" transform="matrix(-1 0 0 1 417.428 0)"/>
</clipPath>
<clipPath id="clip2_3411_24138">
<rect width="94.0625" height="89.6875" fill="white" transform="matrix(-1 0 0 1 144.865 250.25)"/>
</clipPath>
</defs>
</svg>
